<?xml version="1.0" encoding="iso-8859-1"?>
<!-- Uploaded to: SVG Repo, www.svgrepo.com, Generator: SVG Repo Mixer Tools -->
<svg height="800px" width="800px" version="1.1" id="Layer_1" xmlns="http://www.w3.org/2000/svg" xmlns:xlink="http://www.w3.org/1999/xlink" 
	 viewBox="0 0 512 512" xml:space="preserve">
<g transform="translate(0 1)">
	<path style="fill:#FFFFFF;" d="M273.067,102.253c-4.267,0-9.387-0.853-13.653-0.853c-84.48,0-153.6,69.12-153.6,153.6h25.6
		C131.413,173.933,193.707,108.227,273.067,102.253"/>
	<g>
		<path style="fill:#FDCC00;" d="M110.933,255c-14.507,0-25.6,11.947-25.6,25.6c0,14.507,11.093,25.6,25.6,25.6h69.973l51.2-51.2
			H110.933z"/>
		<path style="fill:#FDCC00;" d="M401.067,280.6c0-13.653-11.093-25.6-25.6-25.6H254.293l-51.2,51.2h172.373
			C389.12,306.2,401.067,294.253,401.067,280.6"/>
	</g>
	<path style="fill:#FFA800;" d="M401.067,255h-25.6c14.507,0,25.6,11.947,25.6,25.6c0,14.507-11.093,25.6-25.6,25.6h25.6
		c14.507,0,25.6-11.093,25.6-25.6C426.667,266.093,414.72,255,401.067,255"/>
	<path style="fill:#FDCC00;" d="M170.667,400.067h119.467c52.053,0,93.867-41.813,93.867-93.867H203.093l-80.213,80.213
		C136.533,394.947,152.747,400.067,170.667,400.067"/>
	<path style="fill:#FFA800;" d="M384,306.2c0,52.053-41.813,93.867-93.867,93.867h25.6c52.053,0,93.867-41.813,93.867-93.867H384z"
		/>
	<g>
		<path style="fill:#FFFFFF;" d="M110.933,255h25.6c-14.507,0-25.6,11.947-25.6,25.6c0,14.507,11.093,25.6,25.6,25.6h-25.6
			c-14.507,0-25.6-11.093-25.6-25.6C85.333,266.093,96.427,255,110.933,255"/>
		<path style="fill:#FFFFFF;" d="M128,306.2c0,52.053,41.813,93.867,93.867,93.867h-25.6c-52.053,0-93.867-41.813-93.867-93.867H128
			z"/>
	</g>
	<g>
		<path style="fill:#FDCC00;" d="M128,306.2c0,22.187,7.68,41.813,20.48,58.027l58.027-58.027H128z"/>
		<path style="fill:#FDCC00;" d="M281.6,101.4C197.12,101.4,128,170.52,128,255h129.707l92.16-120.32
			C323.413,114.2,317.44,101.4,281.6,101.4"/>
		<path style="fill:#FDCC00;" d="M384,255c0-35.84-12.8-69.12-33.28-95.573L254.293,255H384z"/>
	</g>
	<path style="fill:#FFA800;" d="M375.467,161.133l-15.36,15.36c14.507,23.893,23.04,51.2,23.04,81.067h25.6
		C409.6,220.867,396.8,187.587,375.467,161.133"/>
	<path style="fill:#FFE100;" d="M256,468.333c-52.907,0-100.693-19.627-138.24-51.2L418.133,116.76
		c31.573,37.547,51.2,85.333,51.2,138.24C469.333,372.76,373.76,468.333,256,468.333 M42.667,255
		C42.667,137.24,138.24,41.667,256,41.667c52.907,0,100.693,19.627,138.24,51.2L93.867,393.24
		C61.44,355.693,42.667,307.907,42.667,255 M256,7.533C119.467,7.533,8.533,118.467,8.533,255S119.467,502.467,256,502.467
		S503.467,391.533,503.467,255S392.533,7.533,256,7.533"/>
	<path d="M256,511C114.347,511,0,395.8,0,255S114.347-1,256-1s256,115.2,256,256S396.8,511,256,511z M256,16.067
		C124.587,16.067,17.067,123.587,17.067,255S124.587,493.933,256,493.933S494.933,386.413,494.933,255S387.413,16.067,256,16.067z
		 M256,476.867c-52.907,0-103.253-18.773-143.36-52.907c-1.707-1.707-2.56-3.413-3.413-5.973c0-2.56,0.853-4.267,2.56-5.973
		L412.16,111.64c1.707-1.707,4.267-2.56,5.973-2.56c2.56,0,4.267,0.853,5.973,3.413c34.133,40.107,52.907,91.307,52.907,143.36
		C477.867,377.027,378.027,476.867,256,476.867z M130.56,416.28C166.4,444.44,210.773,459.8,256,459.8
		c112.64,0,204.8-92.16,204.8-204.8c0-45.227-15.36-89.6-43.52-125.44L130.56,416.28z M93.867,401.773
		C93.867,401.773,93.013,401.773,93.867,401.773c-2.56,0-5.12-0.853-6.827-3.413C52.907,358.253,34.133,307.907,34.133,255
		c0-122.027,99.84-221.867,221.867-221.867c52.907,0,103.253,18.773,143.36,52.907c1.707,1.707,2.56,3.413,3.413,5.973
		c0,2.56-0.853,4.267-2.56,5.973L99.84,399.213C98.133,400.92,95.573,401.773,93.867,401.773z M256,50.2
		C143.36,50.2,51.2,142.36,51.2,255c0,45.227,15.36,89.6,43.52,125.44L382.293,92.867C345.6,65.56,301.227,50.2,256,50.2z"/>
	<path d="M213.333,161.133c0-5.12-3.413-8.533-8.533-8.533c-5.12,0-8.533,3.413-8.533,8.533c0,5.12,3.413,8.533,8.533,8.533
		C209.92,169.667,213.333,166.253,213.333,161.133"/>
	<path d="M247.467,195.267c0-5.12-3.413-8.533-8.533-8.533c-5.12,0-8.533,3.413-8.533,8.533c0,5.12,3.413,8.533,8.533,8.533
		C244.053,203.8,247.467,200.387,247.467,195.267"/>
	<path d="M281.6,161.133c0-5.12-3.413-8.533-8.533-8.533s-8.533,3.413-8.533,8.533c0,5.12,3.413,8.533,8.533,8.533
		S281.6,166.253,281.6,161.133"/>
	<path d="M375.467,220.867c0-5.12-3.413-8.533-8.533-8.533s-8.533,3.413-8.533,8.533c0,5.12,3.413,8.533,8.533,8.533
		C371.2,229.4,375.467,225.987,375.467,220.867"/>
	<path d="M204.8,203.8c0-5.12-3.413-8.533-8.533-8.533c-5.12,0-8.533,3.413-8.533,8.533c0,5.12,3.413,8.533,8.533,8.533
		C201.387,212.333,204.8,208.92,204.8,203.8"/>
	<path d="M256,135.533c0-5.12-3.413-8.533-8.533-8.533c-5.12,0-8.533,3.413-8.533,8.533s3.413,8.533,8.533,8.533
		C252.587,144.067,256,140.653,256,135.533"/>
	<path d="M162.133,195.267c0-5.12-3.413-8.533-8.533-8.533c-5.12,0-8.533,3.413-8.533,8.533c0,5.12,3.413,8.533,8.533,8.533
		C158.72,203.8,162.133,200.387,162.133,195.267"/>
	<path d="M232.107,263.533H102.4c-5.12,0-8.533-3.413-8.533-8.533C93.867,165.4,166.4,92.867,256,92.867
		c36.693,0,71.68,11.947,101.547,35.84c1.707,1.707,3.413,3.413,3.413,5.973c0,2.56-0.853,5.12-2.56,6.827L238.08,260.973
		C236.373,262.68,233.813,263.533,232.107,263.533z M110.933,246.467H227.84l110.08-110.08
		c-24.747-17.067-52.907-26.453-82.773-26.453C179.2,109.933,115.2,170.52,110.933,246.467z"/>
	<path d="M409.6,263.533H279.893c-3.413,0-6.827-1.707-7.68-5.12c-1.707-3.413-0.853-6.827,1.707-9.387l95.573-95.573
		c1.707-1.707,4.267-2.56,6.827-2.56s4.267,1.707,5.973,3.413c23.893,29.013,35.84,64,35.84,100.693
		C418.133,260.12,413.867,263.533,409.6,263.533z M300.373,246.467h100.693c-1.707-26.453-10.24-52.053-25.6-74.24L300.373,246.467z
		"/>
	<path d="M180.907,314.733h-69.973c-18.773,0-34.133-15.36-34.133-34.133s15.36-34.133,34.133-34.133h121.173
		c3.413,0,6.827,1.707,7.68,5.12s0.853,6.827-1.707,9.387l-51.2,51.2C185.173,313.88,182.613,314.733,180.907,314.733z
		 M110.933,263.533c-9.387,0-17.067,7.68-17.067,17.067s7.68,17.067,17.067,17.067h66.56l34.133-34.133H110.933z"/>
	<path d="M401.067,314.733H228.693c-3.413,0-6.827-1.707-7.68-5.12c-0.853-3.413-0.853-6.827,1.707-9.387l51.2-51.2
		c1.707-1.707,3.413-2.56,5.973-2.56h121.173c18.773,0,34.133,15.36,34.133,34.133C435.2,299.373,419.84,314.733,401.067,314.733z
		 M249.173,297.667h151.893c9.387,0,17.067-7.68,17.067-17.067s-7.68-17.067-17.067-17.067h-117.76L249.173,297.667z"/>
	<path d="M315.733,408.6H196.267c-17.92,0-36.693-5.12-52.053-14.507c-2.56-1.707-3.413-3.413-4.267-5.973
		c0-2.56,0.853-5.12,2.56-6.827l80.213-80.213c1.707-1.707,3.413-2.56,5.973-2.56H409.6c5.12,0,8.533,3.413,8.533,8.533
		C418.133,362.52,372.053,408.6,315.733,408.6z M162.987,384.707c10.24,4.267,22.187,6.827,33.28,6.827h119.467
		c44.373,0,80.213-34.133,85.333-76.8h-168.96L162.987,384.707z"/>
	<path d="M122.88,372.76C122.027,372.76,122.027,372.76,122.88,372.76c-2.56,0-5.12-1.707-6.827-3.413
		c-14.507-17.92-22.187-40.107-22.187-63.147c0-5.12,3.413-8.533,8.533-8.533h78.507c3.413,0,6.827,1.707,7.68,5.12
		c1.707,3.413,0.853,6.827-1.707,9.387L128.853,370.2C127.147,371.907,124.587,372.76,122.88,372.76z M110.933,314.733
		c0.853,12.8,5.12,25.6,12.8,36.693l36.693-36.693H110.933z"/>
</g>
</svg>