<?xml version="1.0" encoding="iso-8859-1"?>
<!-- Uploaded to: SVG Repo, www.svgrepo.com, Generator: SVG Repo Mixer Tools -->
<svg height="800px" width="800px" version="1.1" id="Layer_1" xmlns="http://www.w3.org/2000/svg" xmlns:xlink="http://www.w3.org/1999/xlink" 
	 viewBox="0 0 511.045 511.045" xml:space="preserve">
<g transform="translate(1)">
	<path style="fill:#FFFFFF;" d="M84.232,280.696c-62.293-69.973-47.787-162.133-13.653-202.24
		c23.893-28.16,52.907-50.347,87.893-52.053c-1.707,0-3.413,0-5.12,0c-41.813,0-76.8,23.04-104.96,52.907
		c-38.4,40.107-54.613,132.267,15.36,202.24c34.987,34.987,195.413,202.24,198.827,205.653
		C259.165,482.083,114.952,315.683,84.232,280.696"/>
	<path style="fill:#FFE100;" d="M254.045,110.029c17.067-47.787,52.907-84.48,98.133-84.48c37.547,0,69.12,22.187,94.72,52.907
		c33.28,40.107,48.64,132.267-13.653,202.24c-31.573,34.987-178.347,204.8-178.347,204.8s-146.773-169.813-178.347-204.8
		c-62.293-69.973-47.787-162.133-13.653-202.24c25.6-29.867,56.32-52.907,93.867-52.907
		C201.992,25.549,236.979,62.243,254.045,110.029"/>
	<path style="fill:#FDCC00;" d="M253.192,110.029C253.192,110.883,253.192,110.883,253.192,110.029
		C253.192,110.883,253.192,110.883,253.192,110.029C253.192,110.883,253.192,110.883,253.192,110.029"/>
	<path style="fill:#FFA800;" d="M468.232,78.456c-28.16-29.867-63.147-52.907-104.96-52.907c-1.707,0-3.413,0-5.12,0
		c34.987,2.56,64,23.893,87.893,52.053c33.28,40.107,48.64,132.267-13.653,202.24c-32.427,36.693-178.347,206.507-179.2,206.507l0,0
		c0,0,163.84-169.813,198.827-205.653C521.992,211.576,505.779,118.563,468.232,78.456"/>
	<g>
		<polygon style="fill:#FDCC00;" points="194.312,238.883 313.779,238.883 313.779,204.749 194.312,204.749 		"/>
		<path style="fill:#FDCC00;" d="M130.312,264.483L130.312,264.483c-11.947,0-21.333-9.387-21.333-21.333v-42.667
			c0-11.947,9.387-21.333,21.333-21.333s21.333,9.387,21.333,21.333v42.667C151.645,255.096,142.259,264.483,130.312,264.483"/>
		<path style="fill:#FDCC00;" d="M172.979,281.549L172.979,281.549c-11.947,0-21.333-9.387-21.333-21.333v-76.8
			c0-11.947,9.387-21.333,21.333-21.333c11.947,0,21.333,9.387,21.333,21.333v76.8C194.312,272.163,184.925,281.549,172.979,281.549
			"/>
		<path style="fill:#FDCC00;" d="M360.712,179.149L360.712,179.149c11.947,0,21.333,9.387,21.333,21.333v42.667
			c0,11.947-9.387,21.333-21.333,21.333V179.149z"/>
	</g>
	<path style="fill:#FFA800;" d="M377.779,179.149c-3.413,0-5.973,0.853-8.533,1.707c7.68,3.413,12.8,11.093,12.8,19.627v42.667
		c0,8.533-5.12,16.213-12.8,19.627c2.56,0.853,5.12,1.707,8.533,1.707c11.947,0,21.333-9.387,21.333-21.333v-42.667
		C399.112,188.536,389.725,179.149,377.779,179.149"/>
	<path style="fill:#FDCC00;" d="M335.112,162.083L335.112,162.083c11.947,0,21.333,9.387,21.333,21.333v76.8
		c0,11.947-9.387,21.333-21.333,21.333s-21.333-9.387-21.333-21.333v-76.8C313.779,171.469,323.165,162.083,335.112,162.083"/>
	<path d="M254.899,494.029c-2.56,0-4.267-0.853-5.973-2.56c-1.707-1.707-164.693-169.813-199.68-204.8
		c-73.387-73.387-55.467-171.52-15.36-214.187c3.413-3.413,8.533-3.413,11.947,0c3.413,3.413,3.413,8.533,0,11.947
		c-35.84,37.547-50.347,124.587,15.36,190.293c30.72,30.72,162.987,168.107,192.853,198.827
		c29.867-31.573,162.133-168.107,192.853-198.827c64.853-64.853,50.347-152.747,15.36-190.293c-30.72-33.28-64-50.347-98.987-50.347
		c-43.52,0-81.92,30.72-101.547,79.36c-0.853,3.413-4.267,5.12-7.68,5.12l0,0c-3.413,0-6.827-2.56-7.68-5.12
		c-19.627-48.64-58.027-79.36-100.693-79.36c-14.507,0-28.16,2.56-41.813,8.533c-4.267,1.707-9.387,0-11.093-4.267
		s0-9.387,4.267-11.093c15.36-6.827,32.427-10.24,48.64-10.24c44.373,0,85.333,27.307,108.373,72.533
		c23.893-45.227,64.853-72.533,109.227-72.533c40.107,0,76.8,18.773,111.787,55.467c21.333,23.04,34.987,58.88,34.987,95.573
		c0,30.72-8.533,75.947-50.347,118.613c-34.987,34.987-197.12,203.093-198.827,204.8
		C259.165,493.176,256.605,494.029,254.899,494.029z"/>
	<path d="M74.845,51.149c0-5.12-3.413-8.533-8.533-8.533c-5.12,0-8.533,3.413-8.533,8.533s3.413,8.533,8.533,8.533
		C71.432,59.683,74.845,56.269,74.845,51.149"/>
	<path d="M313.779,247.416H194.312c-5.12,0-8.533-3.413-8.533-8.533v-34.133c0-5.12,3.413-8.533,8.533-8.533h119.467
		c5.12,0,8.533,3.413,8.533,8.533v34.133C322.312,244.003,318.045,247.416,313.779,247.416z M202.845,230.349h102.4v-17.067h-102.4
		V230.349z"/>
	<path d="M130.312,272.163c-16.213,0-29.867-13.653-29.867-29.867v-42.667c0-16.213,13.653-29.867,29.867-29.867
		s29.867,13.653,29.867,29.867v42.667C160.179,259.363,146.525,272.163,130.312,272.163z M130.312,186.829
		c-6.827,0-12.8,5.973-12.8,12.8v42.667c0,6.827,5.973,12.8,12.8,12.8c6.827,0,12.8-5.973,12.8-12.8v-42.667
		C143.112,192.803,137.139,186.829,130.312,186.829z"/>
	<path d="M172.979,289.229c-16.213,0-29.867-13.653-29.867-29.867v-76.8c0-16.213,13.653-29.867,29.867-29.867
		s29.867,13.653,29.867,29.867v76.8C202.845,276.429,189.192,289.229,172.979,289.229z M172.979,169.763
		c-6.827,0-12.8,5.973-12.8,12.8v76.8c0,6.827,5.973,12.8,12.8,12.8s12.8-5.973,12.8-12.8v-76.8
		C185.779,175.736,179.805,169.763,172.979,169.763z"/>
	<path d="M377.779,272.163c-16.213,0-29.867-13.653-29.867-29.867v-42.667c0-16.213,13.653-29.867,29.867-29.867
		s29.867,13.653,29.867,29.867v42.667C407.645,259.363,393.992,272.163,377.779,272.163z M377.779,186.829
		c-6.827,0-12.8,5.973-12.8,12.8v42.667c0,6.827,5.973,12.8,12.8,12.8s12.8-5.973,12.8-12.8v-42.667
		C390.579,192.803,384.605,186.829,377.779,186.829z"/>
	<path d="M335.112,289.229c-16.213,0-29.867-13.653-29.867-29.867v-76.8c0-16.213,13.653-29.867,29.867-29.867
		s29.867,13.653,29.867,29.867v76.8C364.979,276.429,351.325,289.229,335.112,289.229z M335.112,169.763
		c-6.827,0-12.8,5.973-12.8,12.8v76.8c0,6.827,5.973,12.8,12.8,12.8s12.8-5.973,12.8-12.8v-76.8
		C347.912,175.736,341.939,169.763,335.112,169.763z"/>
</g>
</svg>