<?xml version="1.0" encoding="iso-8859-1"?>
<!-- Uploaded to: SVG Repo, www.svgrepo.com, Generator: SVG Repo Mixer Tools -->
<svg height="800px" width="800px" version="1.1" id="Layer_1" xmlns="http://www.w3.org/2000/svg" xmlns:xlink="http://www.w3.org/1999/xlink" 
	 viewBox="0 0 512 512" xml:space="preserve">
<g>
	<path style="fill:#FFE100;" d="M375.467,8.533c9.387,0,17.067,7.68,17.067,17.067v68.267c0,9.387-7.68,17.067-17.067,17.067h25.6
		c9.387,0,17.067-7.68,17.067-17.067V25.6c0-9.387-7.68-17.067-17.067-17.067"/>
	<polyline style="fill:#FFE100;" points="341.333,110.933 341.333,145.067 366.933,145.067 366.933,110.933 	"/>
	<path style="fill:#FFE100;" d="M366.933,145.067h-25.6c33.28,0,59.733,26.453,59.733,59.733v238.933
		c0,33.28-26.453,59.733-59.733,59.733h25.6c33.28,0,59.733-26.453,59.733-59.733V204.8
		C426.667,171.52,400.213,145.067,366.933,145.067"/>
	<path style="fill:#FFE100;" d="M315.733,503.467H179.2c-33.28,0-59.733-26.453-59.733-59.733V204.8
		c0-33.28,26.453-59.733,59.733-59.733h136.533c33.28,0,59.733,26.453,59.733,59.733v238.933
		C375.467,476.16,348.16,503.467,315.733,503.467"/>
</g>
<polygon style="fill:#63D3FD;" points="93.867,418.133 375.467,418.133 375.467,230.4 93.867,230.4 "/>
<path style="fill:#FFE100;" d="M349.867,110.933h-204.8c-9.387,0-17.067-7.68-17.067-17.067V25.6c0-9.387,7.68-17.067,17.067-17.067
	h204.8c9.387,0,17.067,7.68,17.067,17.067v68.267C366.933,103.253,359.253,110.933,349.867,110.933"/>
<path style="fill:#FFA800;" d="M349.867,8.533c9.387,0,17.067,7.68,17.067,17.067v68.267c0,9.387-7.68,17.067-17.067,17.067h25.6
	c9.387,0,17.067-7.68,17.067-17.067V25.6c0-9.387-7.68-17.067-17.067-17.067"/>
<path style="fill:#FFFFFF;" d="M145.067,110.933c-9.387,0-17.067-7.68-17.067-17.067V25.6c0-9.387,7.68-17.067,17.067-17.067h-25.6
	c-9.387,0-17.067,7.68-17.067,17.067v68.267c0,9.387,7.68,17.067,17.067,17.067"/>
<polygon style="fill:#FFE100;" points="153.6,145.067 315.733,145.067 315.733,110.933 153.6,110.933 "/>
<polyline style="fill:#FFA800;" points="315.733,110.933 315.733,145.067 341.333,145.067 341.333,110.933 "/>
<path style="fill:#FFFFFF;" d="M119.467,443.733V204.8c0-33.28,26.453-59.733,59.733-59.733h-25.6
	c-33.28,0-59.733,26.453-59.733,59.733v238.933c0,33.28,26.453,59.733,59.733,59.733h25.6
	C145.92,503.467,119.467,477.013,119.467,443.733"/>
<path style="fill:#FFA800;" d="M341.333,145.067h-25.6c33.28,0,59.733,26.453,59.733,59.733v238.933
	c0,33.28-26.453,59.733-59.733,59.733h25.6c33.28,0,59.733-26.453,59.733-59.733V204.8
	C401.067,171.52,374.613,145.067,341.333,145.067"/>
<polygon style="fill:#3DB9F9;" points="375.467,418.133 401.067,418.133 401.067,230.4 375.467,230.4 "/>
<path d="M341.333,512H153.6c-37.547,0-68.267-30.72-68.267-68.267V324.267c0-5.12,3.413-8.533,8.533-8.533
	c5.12,0,8.533,3.413,8.533,8.533v119.467c0,28.16,23.04,51.2,51.2,51.2h187.733c28.16,0,51.2-23.04,51.2-51.2V204.8
	c0-28.16-23.04-51.2-51.2-51.2H153.6c-28.16,0-51.2,23.04-51.2,51.2V256c0,5.12-3.413,8.533-8.533,8.533
	c-5.12,0-8.533-3.413-8.533-8.533v-51.2c0-37.547,30.72-68.267,68.267-68.267h187.733c37.547,0,68.267,30.72,68.267,68.267v238.933
	C409.6,481.28,378.88,512,341.333,512z"/>
<path d="M375.467,119.467L375.467,119.467h-256c-14.507,0-25.6-11.947-25.6-25.6V25.6c0-14.507,11.947-25.6,25.6-25.6h256
	c14.507,0,25.6,11.947,25.6,25.6v68.267C401.067,108.373,389.12,119.467,375.467,119.467z M119.467,17.067
	c-5.12,0-8.533,4.267-8.533,8.533v68.267c0,5.12,4.267,8.533,8.533,8.533h256c5.12,0,8.533-4.267,8.533-8.533V25.6
	c0-5.12-4.267-8.533-8.533-8.533H119.467z"/>
<path d="M341.333,153.6H153.6c-5.12,0-8.533-3.413-8.533-8.533v-34.133c0-5.12,3.413-8.533,8.533-8.533h187.733
	c5.12,0,8.533,3.413,8.533,8.533v34.133C349.867,149.333,345.6,153.6,341.333,153.6z M162.133,136.533H332.8v-17.067H162.133
	V136.533z"/>
<path d="M196.267,85.333H102.4c-5.12,0-8.533-3.413-8.533-8.533s3.413-8.533,8.533-8.533h93.867c5.12,0,8.533,3.413,8.533,8.533
	S200.533,85.333,196.267,85.333z"/>
<path d="M145.067,51.2H102.4c-5.12,0-8.533-3.413-8.533-8.533s3.413-8.533,8.533-8.533h42.667c5.12,0,8.533,3.413,8.533,8.533
	S149.333,51.2,145.067,51.2z"/>
<path d="M392.533,51.2L392.533,51.2h-93.867c-5.12,0-8.533-4.267-8.533-8.533c0-5.12,3.413-8.533,8.533-8.533l0,0h93.867
	c5.12,0,8.533,4.267,8.533,8.533C401.067,47.787,396.8,51.2,392.533,51.2z"/>
<path d="M392.533,85.333L392.533,85.333h-42.667c-5.12,0-8.533-4.267-8.533-8.533c0-5.12,4.267-8.533,8.533-8.533l0,0h42.667
	c5.12,0,8.533,4.267,8.533,8.533C401.067,81.92,396.8,85.333,392.533,85.333z"/>
<path d="M401.067,426.667h-307.2c-5.12,0-8.533-3.413-8.533-8.533V332.8c0-5.12,3.413-8.533,8.533-8.533
	c5.12,0,8.533,3.413,8.533,8.533v76.8h290.133V238.933H102.4v8.533c0,5.12-3.413,8.533-8.533,8.533c-5.12,0-8.533-3.413-8.533-8.533
	V230.4c0-5.12,3.413-8.533,8.533-8.533h307.2c5.12,0,8.533,3.413,8.533,8.533v187.733
	C409.6,423.253,405.333,426.667,401.067,426.667z"/>
<path d="M230.4,392.533c-1.707,0-4.267-0.853-5.973-1.707c-3.413-3.413-4.267-8.533-0.853-11.947l39.253-45.227h-49.493
	c-3.413,0-5.973-1.707-7.68-5.12c-1.707-3.413-0.853-6.827,0.853-9.387l51.2-59.733c3.413-3.413,8.533-4.267,11.947-0.853
	s4.267,8.533,0.853,11.947l-38.4,45.227H281.6c3.413,0,5.973,1.707,7.68,5.12c1.707,3.413,0.853,6.827-0.853,9.387l-51.2,59.733
	C235.52,391.68,232.96,392.533,230.4,392.533z"/>
<path d="M102.4,290.133c0-5.12-3.413-8.533-8.533-8.533c-5.12,0-8.533,3.413-8.533,8.533c0,5.12,3.413,8.533,8.533,8.533
	C98.987,298.667,102.4,295.253,102.4,290.133"/>
</svg>